<mxfile host="app.diagrams.net" agent="Mozilla/5.0 (Windows NT 10.0; Win64; x64) AppleWebKit/537.36 (KHTML, like Gecko) Chrome/133.0.0.0 Safari/537.36" version="26.1.0">
  <diagram name="第 1 页" id="ZKobRG4JK-VmnRkCWwGY">
    <mxGraphModel dx="1687" dy="918" grid="0" gridSize="10" guides="1" tooltips="1" connect="1" arrows="1" fold="1" page="1" pageScale="1" pageWidth="827" pageHeight="1169" background="none" math="0" shadow="0">
      <root>
        <mxCell id="0" />
        <mxCell id="1" parent="0" />
        <mxCell id="yRMIKyiLItkKRUMiK5aZ-4" value="&lt;div&gt;&lt;font style=&quot;color: rgb(0, 102, 51); font-size: 32px;&quot;&gt;&lt;b style=&quot;&quot;&gt;&lt;i style=&quot;&quot;&gt;&lt;br&gt;&lt;/i&gt;&lt;/b&gt;&lt;/font&gt;&lt;/div&gt;&lt;font style=&quot;color: rgb(0, 102, 51); font-size: 32px;&quot;&gt;&lt;b style=&quot;&quot;&gt;&lt;i style=&quot;&quot;&gt;&lt;div style=&quot;&quot;&gt;&lt;b style=&quot;color: light-dark(rgb(0, 102, 51), rgb(105, 193, 149)); background-color: transparent;&quot;&gt;&lt;i&gt;统一CMDB&lt;/i&gt;&lt;/b&gt;&lt;/div&gt;&lt;/i&gt;&lt;/b&gt;&lt;/font&gt;" style="ellipse;whiteSpace=wrap;html=1;aspect=fixed;fillColor=#f5f5f5;fontColor=#333333;strokeColor=#666666;sketch=1;curveFitting=1;jiggle=2;shadow=1;" vertex="1" parent="1">
          <mxGeometry x="14" y="1244" width="813" height="813" as="geometry" />
        </mxCell>
        <mxCell id="yRMIKyiLItkKRUMiK5aZ-1" value="&lt;b style=&quot;color: rgb(0, 102, 51); font-size: 30px;&quot;&gt;&lt;i&gt;IDC运营平台&lt;/i&gt;&lt;/b&gt;&lt;div&gt;&lt;br&gt;&lt;/div&gt;" style="ellipse;whiteSpace=wrap;html=1;aspect=fixed;fillColor=#60a917;strokeColor=#2D7600;sketch=1;curveFitting=1;jiggle=2;shadow=1;fontColor=#ffffff;" vertex="1" parent="1">
          <mxGeometry x="84.5" y="1670.5" width="278" height="278" as="geometry" />
        </mxCell>
        <mxCell id="yRMIKyiLItkKRUMiK5aZ-2" value="&lt;font color=&quot;#006633&quot;&gt;&lt;span style=&quot;font-size: 30px;&quot;&gt;&lt;b&gt;&lt;i&gt;混合云系统&lt;/i&gt;&lt;/b&gt;&lt;/span&gt;&lt;/font&gt;" style="ellipse;whiteSpace=wrap;html=1;aspect=fixed;fillColor=#d80073;strokeColor=#A50040;sketch=1;curveFitting=1;jiggle=2;shadow=1;fontColor=#ffffff;" vertex="1" parent="1">
          <mxGeometry x="81" y="1358" width="285" height="285" as="geometry" />
        </mxCell>
        <mxCell id="yRMIKyiLItkKRUMiK5aZ-3" value="&lt;i style=&quot;color: rgb(0, 102, 51); font-size: 30px;&quot;&gt;&lt;b&gt;Meta元数据&lt;/b&gt;&lt;/i&gt;" style="ellipse;whiteSpace=wrap;html=1;aspect=fixed;fillColor=#0050ef;strokeColor=#001DBC;sketch=1;curveFitting=1;jiggle=2;shadow=1;fontColor=#ffffff;" vertex="1" parent="1">
          <mxGeometry x="479" y="1361" width="285" height="285" as="geometry" />
        </mxCell>
        <mxCell id="yRMIKyiLItkKRUMiK5aZ-5" value="&lt;font style=&quot;color: rgb(0, 102, 0); font-size: 30px;&quot;&gt;&lt;b&gt;&lt;i&gt;易点资产库&lt;/i&gt;&lt;/b&gt;&lt;/font&gt;" style="ellipse;whiteSpace=wrap;html=1;aspect=fixed;fillColor=#f0a30a;strokeColor=#BD7000;sketch=1;curveFitting=1;jiggle=2;shadow=1;fontColor=#000000;" vertex="1" parent="1">
          <mxGeometry x="479" y="1667" width="285" height="285" as="geometry" />
        </mxCell>
        <mxCell id="yRMIKyiLItkKRUMiK5aZ-11" value="" style="group" vertex="1" connectable="0" parent="1">
          <mxGeometry x="261.5" y="124" width="278" height="280" as="geometry" />
        </mxCell>
        <mxCell id="dAGa8_dfelPEvwSkxREn-11" value="&lt;b style=&quot;color: rgb(0, 102, 51); font-size: 30px;&quot;&gt;&lt;i&gt;成 本 管 控&lt;/i&gt;&lt;/b&gt;" style="ellipse;whiteSpace=wrap;html=1;aspect=fixed;fillColor=#60a917;strokeColor=#2D7600;sketch=1;curveFitting=1;jiggle=2;shadow=1;fontColor=#ffffff;" parent="yRMIKyiLItkKRUMiK5aZ-11" vertex="1">
          <mxGeometry width="276.985401459854" height="276.985401459854" as="geometry" />
        </mxCell>
        <mxCell id="yRMIKyiLItkKRUMiK5aZ-7" value="&lt;font style=&quot;font-size: 20px; color: rgb(0, 102, 0);&quot;&gt;&lt;b&gt;&lt;i&gt;1. 资源滥用、超卖治理&lt;/i&gt;&lt;/b&gt;&lt;/font&gt;" style="text;html=1;align=center;verticalAlign=middle;whiteSpace=wrap;rounded=0;" vertex="1" parent="yRMIKyiLItkKRUMiK5aZ-11">
          <mxGeometry x="13.535580524344569" y="146.81647940074907" width="255.0936329588015" height="104.8689138576779" as="geometry" />
        </mxCell>
        <mxCell id="yRMIKyiLItkKRUMiK5aZ-12" value="" style="group" vertex="1" connectable="0" parent="1">
          <mxGeometry x="18" y="331" width="285" height="285" as="geometry" />
        </mxCell>
        <mxCell id="dAGa8_dfelPEvwSkxREn-12" value="&lt;b style=&quot;color: rgb(0, 102, 51); font-size: 30px;&quot;&gt;&lt;i&gt;流 程 规 范&lt;/i&gt;&lt;/b&gt;" style="ellipse;whiteSpace=wrap;html=1;aspect=fixed;fillColor=#d80073;strokeColor=#A50040;sketch=1;curveFitting=1;jiggle=2;shadow=1;fontColor=#ffffff;" parent="yRMIKyiLItkKRUMiK5aZ-12" vertex="1">
          <mxGeometry width="285" height="285" as="geometry" />
        </mxCell>
        <mxCell id="yRMIKyiLItkKRUMiK5aZ-6" value="&lt;font style=&quot;font-size: 20px; color: rgb(0, 102, 0);&quot;&gt;&lt;b&gt;&lt;i&gt;1. 权限/审批统一接入OA&lt;/i&gt;&lt;/b&gt;&lt;/font&gt;" style="text;html=1;align=center;verticalAlign=middle;whiteSpace=wrap;rounded=0;" vertex="1" parent="yRMIKyiLItkKRUMiK5aZ-12">
          <mxGeometry x="22" y="117" width="252" height="164" as="geometry" />
        </mxCell>
        <mxCell id="yRMIKyiLItkKRUMiK5aZ-13" value="" style="group" vertex="1" connectable="0" parent="1">
          <mxGeometry x="507" y="327" width="285" height="285" as="geometry" />
        </mxCell>
        <mxCell id="dAGa8_dfelPEvwSkxREn-13" value="&lt;i style=&quot;color: rgb(0, 102, 51); font-size: 30px;&quot;&gt;&lt;b&gt;生 命 周 期&lt;/b&gt;&lt;/i&gt;" style="ellipse;whiteSpace=wrap;html=1;aspect=fixed;fillColor=#0050ef;strokeColor=#001DBC;sketch=1;curveFitting=1;jiggle=2;shadow=1;fontColor=#ffffff;" parent="yRMIKyiLItkKRUMiK5aZ-13" vertex="1">
          <mxGeometry width="285" height="285" as="geometry" />
        </mxCell>
        <mxCell id="yRMIKyiLItkKRUMiK5aZ-8" value="&lt;font style=&quot;font-size: 20px; color: rgb(0, 102, 0);&quot;&gt;&lt;b&gt;&lt;i&gt;1. 资源生命周期管理&lt;/i&gt;&lt;/b&gt;&lt;/font&gt;" style="text;html=1;align=center;verticalAlign=middle;whiteSpace=wrap;rounded=0;" vertex="1" parent="yRMIKyiLItkKRUMiK5aZ-13">
          <mxGeometry x="16" y="148" width="245" height="100" as="geometry" />
        </mxCell>
        <mxCell id="yRMIKyiLItkKRUMiK5aZ-14" value="" style="group" vertex="1" connectable="0" parent="1">
          <mxGeometry x="258" y="535" width="285" height="285" as="geometry" />
        </mxCell>
        <mxCell id="yRMIKyiLItkKRUMiK5aZ-9" value="&lt;i style=&quot;color: rgb(0, 102, 51); font-size: 30px;&quot;&gt;&lt;b&gt;性 能 调 优&lt;/b&gt;&lt;/i&gt;" style="ellipse;whiteSpace=wrap;html=1;aspect=fixed;fillColor=#e3c800;strokeColor=#B09500;sketch=1;curveFitting=1;jiggle=2;shadow=1;fontColor=#000000;" vertex="1" parent="yRMIKyiLItkKRUMiK5aZ-14">
          <mxGeometry width="285" height="285" as="geometry" />
        </mxCell>
        <mxCell id="yRMIKyiLItkKRUMiK5aZ-10" value="&lt;font style=&quot;font-size: 20px; color: rgb(0, 102, 0);&quot;&gt;&lt;b&gt;&lt;i&gt;1. 服务卡顿、&lt;/i&gt;&lt;/b&gt;&lt;/font&gt;&lt;b style=&quot;background-color: transparent; color: light-dark(rgb(0, 102, 0), rgb(111, 199, 111)); font-size: 20px;&quot;&gt;&lt;i&gt;慢查询、自监控&lt;/i&gt;&lt;/b&gt;" style="text;html=1;align=center;verticalAlign=middle;whiteSpace=wrap;rounded=0;" vertex="1" parent="yRMIKyiLItkKRUMiK5aZ-14">
          <mxGeometry x="9.5" y="142" width="266" height="100" as="geometry" />
        </mxCell>
        <mxCell id="yRMIKyiLItkKRUMiK5aZ-15" value="&lt;font style=&quot;font-size: 33px; color: rgb(0, 102, 0);&quot;&gt;治理&lt;/font&gt;" style="rounded=1;whiteSpace=wrap;html=1;sketch=1;curveFitting=1;jiggle=2;shadow=1;gradientColor=#E6E6E6;" vertex="1" parent="1">
          <mxGeometry x="341" y="443" width="120" height="60" as="geometry" />
        </mxCell>
        <mxCell id="yRMIKyiLItkKRUMiK5aZ-18" value="" style="shape=singleArrow;direction=west;whiteSpace=wrap;html=1;movable=1;resizable=1;rotatable=1;deletable=1;editable=1;locked=0;connectable=1;" vertex="1" parent="1">
          <mxGeometry x="313" y="455.5" width="20" height="35" as="geometry" />
        </mxCell>
        <mxCell id="yRMIKyiLItkKRUMiK5aZ-23" value="" style="shape=singleArrow;direction=west;whiteSpace=wrap;html=1;movable=1;resizable=1;rotatable=1;deletable=1;editable=1;locked=0;connectable=1;rotation=-180;" vertex="1" parent="1">
          <mxGeometry x="471" y="456" width="20" height="35" as="geometry" />
        </mxCell>
        <mxCell id="yRMIKyiLItkKRUMiK5aZ-24" value="" style="shape=singleArrow;direction=north;whiteSpace=wrap;html=1;" vertex="1" parent="1">
          <mxGeometry x="379" y="416" width="35" height="15" as="geometry" />
        </mxCell>
        <mxCell id="yRMIKyiLItkKRUMiK5aZ-27" value="" style="shape=singleArrow;direction=south;whiteSpace=wrap;html=1;" vertex="1" parent="1">
          <mxGeometry x="382.5" y="509" width="28" height="20" as="geometry" />
        </mxCell>
      </root>
    </mxGraphModel>
  </diagram>
</mxfile>
